<?xml version="1.0" standalone="no"?>
<!DOCTYPE svg PUBLIC "-//W3C//DTD SVG 20010904//EN"
 "http://www.w3.org/TR/2001/REC-SVG-20010904/DTD/svg10.dtd">
<svg version="1.0" xmlns="http://www.w3.org/2000/svg"
 width="1280.000000pt" height="640.000000pt" viewBox="0 0 1280.000000 640.000000"
 preserveAspectRatio="xMidYMid meet">
<metadata>
Created by potrace 1.15, written by Peter Selinger 2001-2017
</metadata>
<g transform="translate(0.000000,640.000000) scale(0.100000,-0.100000)"
fill="white" stroke="none">
<path d="M2995 5430 c-28 -4 -75 -14 -105 -23 -30 -8 -75 -21 -99 -27 -43 -11
-43 -12 -38 -48 3 -20 60 -289 127 -597 66 -308 138 -641 159 -740 24 -111 35
-182 29 -186 -5 -3 -64 -11 -131 -17 -67 -7 -432 -43 -812 -82 -379 -39 -811
-82 -960 -97 -148 -14 -274 -29 -278 -33 -11 -9 48 -65 102 -97 l45 -26 295 7
c163 3 424 11 581 17 844 31 1275 46 1277 45 1 -1 40 -141 87 -311 l85 -310
78 -74 c106 -100 616 -539 700 -602 91 -68 300 -192 497 -295 89 -46 158 -84
153 -84 -4 0 -323 -25 -710 -55 -386 -30 -819 -64 -962 -75 -1107 -85 -1829
-142 -1935 -150 -69 -5 -359 -28 -644 -50 -286 -22 -522 -42 -524 -45 -11 -11
268 -253 368 -319 147 -97 156 -99 432 -86 324 15 1380 55 2888 110 1075 39
1791 66 2446 90 l531 20 59 -20 c607 -210 1125 -310 1609 -310 567 0 1060 64
1422 185 126 42 343 139 343 153 0 4 -42 9 -92 10 -171 6 -300 43 -375 106
-48 41 -76 124 -71 212 9 146 89 250 251 329 212 102 476 128 623 61 106 -49
197 -173 210 -287 5 -45 1 -62 -19 -102 -13 -26 -21 -47 -16 -47 15 0 92 106
126 175 32 62 35 75 30 126 -20 225 -351 486 -937 740 -150 65 -459 183 -613
234 l-88 30 -90 113 c-227 284 -497 505 -746 612 -210 89 -355 108 -661 85
-481 -36 -863 -79 -1632 -186 -627 -87 -895 -116 -1216 -131 -244 -11 -253
-11 -290 9 -147 75 -533 694 -1134 1821 l-125 232 -100 -1 c-55 -1 -123 -5
-150 -9z m5281 -1951 c43 -6 101 -19 130 -30 77 -29 187 -111 295 -220 98
-100 296 -336 287 -344 -2 -3 -60 -9 -129 -15 -294 -25 -590 -63 -708 -92
-226 -54 -589 -182 -801 -282 -30 -14 -60 -26 -66 -26 -6 0 -14 24 -17 53 -3
28 -26 216 -52 416 -25 200 -43 367 -38 371 14 12 240 78 379 109 278 63 541
85 720 60z m-1408 -221 c-3 -7 -60 -179 -128 -383 -67 -203 -124 -371 -125
-373 -3 -3 -438 58 -442 62 -4 4 145 624 152 636 3 5 21 10 38 11 18 0 124 13
237 28 242 34 274 36 268 19z m209 -420 c22 -227 39 -416 37 -419 -3 -5 -295
38 -301 45 -4 4 212 786 217 786 3 0 24 -186 47 -412z"/>
<path d="M5840 3973 c-25 -2 -360 -21 -745 -43 -385 -22 -743 -44 -796 -48
l-97 -7 79 -110 80 -111 292 33 c668 75 1493 185 1509 201 9 9 0 17 -33 31
-55 24 -196 62 -223 59 -12 -1 -41 -3 -66 -5z"/>
<path d="M10753 3177 c-600 -221 -1090 -404 -1088 -405 2 -2 68 -30 147 -61
382 -154 503 -221 735 -405 l121 -96 498 283 c275 156 744 420 1044 587 300
166 555 312 568 323 12 11 22 26 22 34 0 34 -124 69 -345 98 -130 16 -492 45
-565 45 -34 -1 -312 -99 -1137 -403z"/>
<path d="M10060 1849 c-106 -19 -198 -77 -235 -149 -8 -16 -20 -61 -27 -100
-11 -66 -11 -75 7 -108 11 -20 35 -47 54 -59 80 -54 284 -88 493 -81 104 3
130 7 171 27 66 32 81 64 75 160 -9 146 -82 247 -211 291 -72 25 -240 35 -327
19z"/>
</g>
</svg>
